<?xml version="1.0" encoding="utf-8"?>
<!-- Generator: Adobe Illustrator 16.0.0, SVG Export Plug-In . SVG Version: 6.00 Build 0)  -->
<!DOCTYPE svg PUBLIC "-//W3C//DTD SVG 1.1//EN" "http://www.w3.org/Graphics/SVG/1.1/DTD/svg11.dtd">
<svg version="1.1" id="Warstwa_1" xmlns="http://www.w3.org/2000/svg" xmlns:xlink="http://www.w3.org/1999/xlink" x="0px" y="0px"
	 width="100px" height="100px" viewBox="0 0 100 100" enable-background="new 0 0 100 100" xml:space="preserve">
<g id="XMLID_842_">
	<g id="XMLID_848_">
		<path id="XMLID_855_" fill="#EC4A4A" d="M12.235,35.608C7.965,46.286,6.44,63.063,11.626,73.132
			c6.406,11.896,17.694,23.184,31.727,23.184c8.237,0,14.949,1.221,21.965-2.439c8.237-4.271,14.644-7.32,19.524-15.559
			c8.237-13.119,9.152-28.371,2.136-42.405C80.877,23.71,64.708,19.134,52.201,24.32C50.675,24.93,18.948,18.523,12.235,35.608z"/>
		<path id="XMLID_854_" opacity="0.5" fill="#EF3D33" d="M86.979,35.913c-2.835-5.669-7.844-9.689-13.647-11.852
			c1.8,1.758,3.332,3.805,4.496,6.132c7.016,14.034,6.101,29.287-2.137,42.404c-4.88,8.238-11.287,11.287-19.523,15.559
			c-7.018,3.662-13.729,2.441-21.966,2.441c-3.697,0-7.202-0.791-10.478-2.162c5.567,4.729,12.215,7.881,19.63,7.881
			c8.237,0,14.949,1.221,21.965-2.439c8.237-4.271,14.644-7.32,19.524-15.559C93.08,65.198,93.995,49.946,86.979,35.913z"/>
		<g id="XMLID_853_">
			<path id="XMLID_652_" fill="#4F152A" d="M52.586,98.37c-1.445,0-2.901-0.045-4.379-0.092c-1.566-0.051-3.187-0.102-4.854-0.102
				c-12.746,0-25.219-9.033-33.365-24.164C4.456,63.274,6.13,45.869,10.506,34.924C16.585,19.457,40.3,21.538,49.23,22.318
				c0.97,0.085,2.056,0.181,2.499,0.185c13.817-5.597,30.688,0.125,36.915,12.578c7.196,14.393,6.385,30.514-2.225,44.227
				c-4.913,8.293-11.205,11.547-19.171,15.664l-1.073,0.557C61.615,97.905,57.162,98.37,52.586,98.37z M38.765,25.492
				c-9.513,0-21.249,1.762-24.797,10.796c-0.002,0.003-0.003,0.007-0.004,0.011C9.834,46.622,8.45,62.903,13.28,72.278
				c2.789,5.18,13.248,22.178,30.073,22.178c1.727,0,3.376,0.053,4.972,0.104c5.899,0.186,10.994,0.348,16.133-2.332l1.081-0.561
				c7.727-3.994,13.31-6.881,17.703-14.297c8.045-12.814,8.772-27.227,2.073-40.625c-5.42-10.839-20.259-15.742-32.402-10.706
				c-0.668,0.267-1.327,0.221-4.008-0.013C46.464,25.812,42.815,25.492,38.765,25.492z"/>
		</g>
		<g id="XMLID_852_">
			<path id="XMLID_651_" fill="#4F152A" d="M49.116,36.782c-2.393,0-4.997-0.515-7.698-1.834c-0.923-0.451-1.307-1.565-0.855-2.488
				c0.451-0.923,1.565-1.306,2.488-0.855c8.499,4.149,14.792-1.706,15.055-1.958c0.741-0.707,1.919-0.683,2.628,0.055
				c0.71,0.739,0.691,1.91-0.044,2.623C58.719,34.233,54.44,36.782,49.116,36.782z"/>
		</g>
		<g id="XMLID_851_">
			<path id="XMLID_649_" fill="#4F152A" d="M50.814,36.706c-0.797,0-1.533-0.515-1.779-1.315c-0.175-0.572-4.132-14.15,9.783-27.442
				c0.743-0.711,1.921-0.683,2.631,0.06c0.709,0.743,0.683,1.92-0.061,2.63c-12.273,11.724-8.832,23.543-8.796,23.661
				c0.302,0.982-0.251,2.023-1.233,2.324C51.178,36.679,50.994,36.706,50.814,36.706z"/>
		</g>
		<path id="XMLID_850_" fill="#2BB673" d="M55.183,15.033c0,0-8.601-20.194-30.565-7.152C24.617,7.881,34.268,28.135,55.183,15.033z
			"/>
		<g id="XMLID_849_">
			<path id="XMLID_646_" fill="#4F152A" d="M41.855,21.31c-1.802,0-3.561-0.249-5.274-0.747
				C27.418,17.896,23.116,9.056,22.938,8.681c-0.414-0.868-0.097-1.909,0.73-2.399c7.538-4.476,14.461-5.729,20.579-3.729
				c8.779,2.873,12.494,11.391,12.647,11.751c0.359,0.842,0.052,1.82-0.724,2.306C51.176,19.738,46.382,21.31,41.855,21.31z
				 M27.166,8.579c1.512,2.36,5,6.836,10.486,8.42c4.539,1.311,9.6,0.415,15.065-2.662c-1.331-2.259-4.454-6.569-9.661-8.258
				C38.422,4.575,33.084,5.417,27.166,8.579z"/>
		</g>
	</g>
	<g id="XMLID_843_">
		<path id="XMLID_845_" opacity="0.5" fill="#FFFFFF" d="M32.107,39.858c-1.605-1.915-3.275-2.719-4.908-2.773
			c-0.34-0.277-0.791-0.447-1.367-0.422c-7.002,0.294-11.36,10.297-11.214,16.403c0.017,0.689,0.109,1.338,0.258,1.949
			c-0.482,0.287-0.874,0.738-1.04,1.287c-0.79,2.604,0.315,4.234,2.265,5.098c0.385,1.008,1.081,1.904,2.072,2.543
			c2.748,1.771,6.735-0.104,8.88-1.932c0.136-0.115,0.267-0.24,0.395-0.365c0.297-0.264,0.578-0.572,0.837-0.941
			c0.081-0.105,0.161-0.213,0.239-0.32c0.55-0.281,1.077-0.613,1.571-1.006C36.036,54.675,36.842,45.509,32.107,39.858z
			 M26.712,47.991c0.129,0.03,0.235,0.088,0.322,0.165C26.93,48.095,26.823,48.041,26.712,47.991z"/>
		<path id="XMLID_844_" opacity="0.5" fill="#FFFFFF" d="M32.419,49.827c0.659-1.907,0.779-3.986-0.073-5.846
			c-0.397-0.869-1.162-1.739-2.089-2.442c-0.332-0.47-0.825-0.809-1.423-0.872c-1.062-0.51-2.201-0.763-3.208-0.563
			c-1.854,0.367-3.033,1.487-4.019,2.88c-0.58,0.275-1.137,0.587-1.646,0.892c-1.085,0.648-1.858,1.521-2.396,2.616
			c-1.435,1.653-2.194,3.656-1.504,5.46c-0.207,3.615,3.319,6.729,7.02,6.59C27.456,58.378,31.125,53.569,32.419,49.827z"/>
	</g>
</g>
</svg>
