<!DOCTYPE svg PUBLIC "-//W3C//DTD SVG 1.1//EN" "http://www.w3.org/Graphics/SVG/1.1/DTD/svg11.dtd">
<svg version="1.1" id="Layer_1" xmlns="http://www.w3.org/2000/svg" xmlns:xlink="http://www.w3.org/1999/xlink" x="0px" y="0px"
	 width="50px" height="50px" viewBox="0 0 200 200" enable-background="new 0 0 50 50" xml:space="preserve">

<g opacity="0.1">
	<path fill="#5D5D5D" d="M783.862,726.545l-0.171-20.88c4.272-0.697,8.516-4.521,7.743-10.063
		c-5.735-41.147-31.852-72.723-74.345-76.825c-19.207-1.855-40.143,2.543-58.321,10.085c-2.461-23.531,8.643-46.851,28.723-59.899
		c8.72-5.667,0.611-19.693-8.174-13.984c-24.209,15.731-38.268,42.906-36.964,71.157c-1.2-0.441-2.409-0.862-3.625-1.27
		c-2.463-8.306-6.262-16.248-11.107-23.067c-20.823-29.303-58.04-29.915-89.946-22.032c-4.448,1.1-6.581,5.744-5.656,9.962
		c3.301,15.052,10.095,29.691,19.074,42.281c-24.375,16.81-34.656,47.107-36.289,76.842
		c-3.516,63.98,32.624,155.202,110.126,146.519c8.919-1,17.514-3.258,25.921-6.351c4.768-1.754,9.352,1.345,14.07,2.822
		c5.758,1.804,11.82,2.977,17.818,3.611c19.874,2.096,39.073-2.405,55.666-13.608c34.53-23.311,49.453-68.07,53.617-107.6
		C792.609,728.68,788.225,726.131,783.862,726.545z"/>
</g>

<g>
	<g>
		<path fill="#ED322E" d="M762.627,687.756c-1.969-15.785-6.466-29.789-13.518-40.061c-39.044-56.868-115.077-17.816-116.361-17.151
			c-1.286-0.665-77.316-39.717-116.363,17.151c-39.369,57.346,0.842,231.071,116.363,181.509
			c79.794,34.234,123.657-38.068,130.178-104.958"/>
		<g>
			<path fill="#CC1612" d="M770.435,685.603c-5.735-41.147-31.852-72.723-74.344-76.825C673.584,606.604,648.691,613,628.661,623
				c2.725,0,5.45,0,8.174,0c-26.678-14-60.553-19.581-89.351-9.722c-37.054,12.683-51.702,49.552-53.679,85.573
				c-3.516,63.98,32.624,155.202,110.126,146.519c8.919-1,17.514-3.258,25.921-6.351c4.768-1.754,9.352,1.345,14.07,2.822
				c5.758,1.804,11.82,2.977,17.818,3.611c19.874,2.096,39.073-2.405,55.666-13.608c34.53-23.311,49.453-68.07,53.617-107.6
				c1.094-10.383-15.113-10.277-16.195,0c-4.63,43.943-27.567,101.508-78.527,105.512c-13.076,1.028-25.892-2.361-38.002-6.959
				c-9.72-3.691-21.855,4.114-31.962,6.044c-17.036,3.249-34.179-0.624-48.604-9.973c-29.045-18.826-42.493-57.781-46.617-90.473
				c-4.252-33.715-0.589-74.257,30.667-94.304c20.138-12.915,46.146-10.307,67.984-3.859c10.407,3.073,19.805,10.585,30.201,5.803
				c17.368-7.99,37.049-12.079,56.122-10.787c35.494,2.401,54.204,32.201,58.727,64.661
				C756.255,700.216,771.858,695.813,770.435,685.603L770.435,685.603z"/>
		</g>
	</g>
	<g>
		<path fill="#6A2916" d="M639.476,628.249c-6.977-26.525,4.263-54.5,27.016-69.286c8.72-5.667,0.611-19.693-8.174-13.984
			c-28.886,18.771-43.334,53.833-34.459,87.576C626.513,642.647,642.135,638.361,639.476,628.249L639.476,628.249z"/>
	</g>
	<g>
		<path fill="#AECE25" d="M612.816,634.702c0,0-1.393-81.026-93.988-57.126C518.829,577.576,538.71,669.84,612.816,634.702z"/>
		<g>
			<path fill="#91AF23" d="M620.915,634.702c-0.33-14.999-5.65-30.738-14.292-42.903c-20.823-29.303-58.04-29.915-89.946-22.032
				c-4.448,1.1-6.581,5.744-5.656,9.962c3.766,17.171,12.077,33.808,22.993,47.475c21.226,26.573,53.663,27.828,82.891,14.491
				c9.49-4.33,1.252-18.285-8.175-13.983c-25.584,11.673-50.033,7.253-66.361-16.168c-7.432-10.661-12.942-23.402-15.731-36.121
				c-1.886,3.321-3.771,6.643-5.656,9.962c25.855-6.388,56.914-7.453,73.444,17.181c6.373,9.496,10.077,22.316,10.293,32.138
				C604.948,645.129,621.145,645.152,620.915,634.702z"/>
		</g>
	</g>
</g>
</svg>