<?xml version="1.0" encoding="utf-8"?>
<!-- Generator: Adobe Illustrator 16.0.0, SVG Export Plug-In . SVG Version: 6.00 Build 0)  -->
<!DOCTYPE svg PUBLIC "-//W3C//DTD SVG 1.1//EN" "http://www.w3.org/Graphics/SVG/1.1/DTD/svg11.dtd">
<svg version="1.1" id="Warstwa_1" xmlns="http://www.w3.org/2000/svg" xmlns:xlink="http://www.w3.org/1999/xlink" x="0px" y="0px"
	 width="100px" height="100px" viewBox="0 0 100 100" enable-background="new 0 0 100 100" xml:space="preserve">
<path fill="#F8A28C" d="M39.513,51.176L14.087,21.021h-0.046c-1.228,7.302,0.982,17.44,0.982,17.44s-4.942-7.904-4.942-17.44H9.146
	h-3.33H4.834c-0.269,1.598-0.373,3.332-0.371,5.066l17.771,25.088H39.513z"/>
<polygon fill="#F8A28C" points="39.145,51.176 21.867,51.176 3.637,78.324 16.865,78.324 "/>
<path fill="#F0E9DD" d="M4.65,21.021H0.691c0,9.536,4.941,17.44,4.941,17.44s-1.348-6.186-1.353-12.374
	C4.278,24.354,4.382,22.62,4.65,21.021z"/>
<path fill="#F0E9DD" d="M13.857,21.021h-0.124H9.898c0,9.536,4.941,17.44,4.941,17.44S12.63,28.324,13.857,21.021z"/>
<ellipse fill="#F0E9DD" cx="33.92" cy="31.094" rx="2.532" ry="3.543"/>
<polygon fill="#495A69" points="32.09,42.585 39.329,51.176 45.16,42.585 "/>
<polygon fill="#ED626F" points="25.094,51.176 13.064,72.816 33.319,51.176 "/>
<ellipse fill="#3F769E" cx="52.811" cy="57.188" rx="1.348" ry="1.887"/>
<ellipse fill="#3F769E" cx="55.437" cy="49.522" rx="1.887" ry="2.642"/>
<ellipse fill="#3F769E" cx="56.987" cy="56.504" rx="0.859" ry="1.203"/>
<ellipse fill="#3F769E" cx="46.86" cy="53.453" rx="0.92" ry="1.287"/>
<path fill="#568CBE" d="M100,0c-2.305,11.323-49.634,36.625-55.329,32.581l-7.184-10.054l-9.943,1.289l-13.458-7.561
	c0-1.519-0.879-2.749-1.964-2.749H11.11c-1.084,0-1.964,1.23-1.964,2.749h-3.33c0-1.519-0.879-2.749-1.964-2.749H2.839
	c-1.084,0-1.964,1.23-1.964,2.749v4.725h3.959h0.982h3.33h0.936h3.836h0.124h0.046l25.426,30.155l-7.239-8.591h13.07l-5.831,8.591
	l-22.28,27.148H4.005v5.842h13.228l32.193-19.416c6.36,1.925,79.907,81.625,58.699-4.209L100,0z M34.289,34.664
	c-1.398,0-2.532-1.586-2.532-3.543c0-1.958,1.133-3.544,2.532-3.544c1.398,0,2.532,1.587,2.532,3.544
	C36.82,33.077,35.687,34.664,34.289,34.664z"/>
<path fill="#568CBE" d="M105.875,34.638c-9.262,1.053-55.693,1.92-61.388-2.124L37.303,22.46l-9.943,1.288l-13.457-7.56
	c0-1.519-0.879-2.749-1.964-2.749h-1.014c-1.084,0-1.964,1.23-1.964,2.749h-3.33c0-1.519-0.879-2.749-1.964-2.749H2.655
	c-1.085,0-1.964,1.23-1.964,2.749v4.725H4.65h0.982h3.33h0.936h3.835h0.124h0.046l25.426,30.155l-7.239-8.591h13.07l-5.831,8.591
	l-22.28,27.148H3.821v5.842h13.228l32.193-19.416c6.361,1.925,48.945,1.289,55.758,0.107L105.875,34.638z M34.104,34.597
	c-1.398,0-2.532-1.586-2.532-3.544s1.133-3.544,2.532-3.544c1.398,0,2.532,1.586,2.532,3.544S35.502,34.597,34.104,34.597z"/>
</svg>
